<svg width="28" height="28" viewBox="0 0 28 28" fill="none" xmlns="http://www.w3.org/2000/svg">
<g clip-path="url(#clip0_86_42)">
<path d="M20.4167 2.2365C19.1029 2.25693 17.8179 2.62366 16.6912 3.29965C15.5646 3.97564 14.6363 4.93695 14 6.0865C13.3637 4.93695 12.4354 3.97564 11.3088 3.29965C10.1821 2.62366 8.89706 2.25693 7.58333 2.2365C5.4891 2.32749 3.51599 3.24363 2.09508 4.78477C0.674172 6.32591 -0.0790401 8.36678 2.20103e-06 10.4615C2.20103e-06 15.7663 5.58367 21.56 10.2667 25.4882C11.3123 26.3668 12.6342 26.8485 14 26.8485C15.3658 26.8485 16.6877 26.3668 17.7333 25.4882C22.4163 21.56 28 15.7663 28 10.4615C28.079 8.36678 27.3258 6.32591 25.9049 4.78477C24.484 3.24363 22.5109 2.32749 20.4167 2.2365ZM16.2342 23.7032C15.6088 24.2298 14.8175 24.5186 14 24.5186C13.1825 24.5186 12.3912 24.2298 11.7658 23.7032C5.7715 18.6737 2.33334 13.8483 2.33334 10.4615C2.25358 8.98533 2.76076 7.53752 3.74426 6.43382C4.72776 5.33011 6.10777 4.66008 7.58333 4.56983C9.0589 4.66008 10.4389 5.33011 11.4224 6.43382C12.4059 7.53752 12.9131 8.98533 12.8333 10.4615C12.8333 10.7709 12.9563 11.0677 13.175 11.2865C13.3938 11.5052 13.6906 11.6282 14 11.6282C14.3094 11.6282 14.6062 11.5052 14.825 11.2865C15.0437 11.0677 15.1667 10.7709 15.1667 10.4615C15.0869 8.98533 15.5941 7.53752 16.5776 6.43382C17.5611 5.33011 18.9411 4.66008 20.4167 4.56983C21.8922 4.66008 23.2722 5.33011 24.2557 6.43382C25.2392 7.53752 25.7464 8.98533 25.6667 10.4615C25.6667 13.8483 22.2285 18.6737 16.2342 23.6985V23.7032Z" fill="white"/>
</g>
<defs>
<clipPath id="clip0_86_42">
<rect width="28" height="28" fill="white"/>
</clipPath>
</defs>
</svg>
