<svg width="32" height="28" viewBox="0 0 32 28" fill="none" xmlns="http://www.w3.org/2000/svg">
<g clip-path="url(#clip0_78_39)">
<path d="M16 9.33333C14.9452 9.33333 13.914 9.60703 13.037 10.1198C12.1599 10.6326 11.4763 11.3614 11.0726 12.2141C10.669 13.0669 10.5633 14.0052 10.7691 14.9104C10.9749 15.8157 11.4829 16.6472 12.2288 17.2998C12.9746 17.9525 13.9249 18.3969 14.9595 18.577C15.9941 18.7571 17.0664 18.6646 18.041 18.3114C19.0155 17.9582 19.8485 17.3601 20.4345 16.5927C21.0205 15.8252 21.3333 14.923 21.3333 14C21.3333 12.7623 20.7714 11.5753 19.7712 10.7002C18.771 9.825 17.4145 9.33333 16 9.33333V9.33333ZM16 16.3333C15.4726 16.3333 14.957 16.1965 14.5185 15.9401C14.0799 15.6837 13.7382 15.3193 13.5363 14.8929C13.3345 14.4666 13.2817 13.9974 13.3846 13.5448C13.4875 13.0922 13.7414 12.6764 14.1144 12.3501C14.4873 12.0238 14.9625 11.8015 15.4798 11.7115C15.997 11.6215 16.5332 11.6677 17.0205 11.8443C17.5078 12.0209 17.9242 12.32 18.2173 12.7037C18.5103 13.0874 18.6667 13.5385 18.6667 14C18.6667 14.6188 18.3857 15.2123 17.8856 15.6499C17.3855 16.0875 16.7072 16.3333 16 16.3333Z" fill="white"/>
<path d="M28.392 16.2167L27.8 15.918C28.0665 14.6492 28.0665 13.3485 27.8 12.0797L28.392 11.781C28.8472 11.5512 29.2463 11.2452 29.5664 10.8804C29.8865 10.5156 30.1213 10.0993 30.2575 9.65512C30.3937 9.21095 30.4286 8.74765 30.3601 8.29168C30.2917 7.83572 30.1213 7.39601 29.8587 6.99767C29.596 6.59932 29.2463 6.25015 28.8294 5.97007C28.4125 5.69 27.9367 5.48451 27.4291 5.36534C26.9215 5.24617 26.392 5.21566 25.8709 5.27554C25.3498 5.33542 24.8472 5.48452 24.392 5.71433L23.7987 6.01417C22.678 5.1764 21.3902 4.52696 20 4.0985V3.5C20 2.57174 19.5786 1.6815 18.8284 1.02513C18.0783 0.368749 17.0609 0 16 0C14.9391 0 13.9217 0.368749 13.1716 1.02513C12.4214 1.6815 12 2.57174 12 3.5V4.0985C10.6098 4.52849 9.32246 5.17953 8.20266 6.01883L7.60666 5.71667C6.68724 5.25254 5.59477 5.127 4.56957 5.36767C3.54437 5.60834 2.67043 6.19551 2.14 7C1.60956 7.80449 1.46609 8.7604 1.74115 9.65745C2.0162 10.5545 2.68725 11.3192 3.60666 11.7833L4.19866 12.082C3.93214 13.3508 3.93214 14.6515 4.19866 15.9203L3.60666 16.219C2.68725 16.6831 2.0162 17.4478 1.74115 18.3449C1.46609 19.2419 1.60956 20.1978 2.14 21.0023C2.67043 21.8068 3.54437 22.394 4.56957 22.6347C5.59477 22.8753 6.68724 22.7498 7.60666 22.2857L8.19999 21.9858C9.32101 22.8237 10.6093 23.4732 12 23.9015V24.5C12 25.4283 12.4214 26.3185 13.1716 26.9749C13.9217 27.6312 14.9391 28 16 28C17.0609 28 18.0783 27.6312 18.8284 26.9749C19.5786 26.3185 20 25.4283 20 24.5V23.9015C21.3901 23.4715 22.6775 22.8205 23.7973 21.9812L24.3933 22.2822C25.3127 22.7463 26.4052 22.8718 27.4304 22.6312C28.4556 22.3905 29.3296 21.8033 29.86 20.9988C30.3904 20.1943 30.5339 19.2384 30.2588 18.3414C29.9838 17.4443 29.3127 16.6796 28.3933 16.2155L28.392 16.2167ZM24.9947 11.8113C25.4462 13.2429 25.4462 14.7548 24.9947 16.1863C24.9158 16.4355 24.9338 16.7005 25.0458 16.9398C25.1578 17.179 25.3574 17.379 25.6133 17.5082L27.0587 18.2385C27.3651 18.3932 27.5887 18.6481 27.6803 18.9471C27.772 19.246 27.7241 19.5646 27.5473 19.8327C27.3705 20.1009 27.0792 20.2965 26.7375 20.3767C26.3958 20.4569 26.0317 20.415 25.7253 20.2603L24.2773 19.5277C24.0212 19.3979 23.723 19.3463 23.4297 19.3812C23.1363 19.416 22.8646 19.5353 22.6573 19.7202C21.4705 20.7803 19.9754 21.5366 18.3333 21.9077C18.0467 21.9721 17.7927 22.1182 17.6115 22.3229C17.4302 22.5276 17.3318 22.7792 17.332 23.0382V24.5C17.332 24.8094 17.1915 25.1062 16.9415 25.325C16.6914 25.5437 16.3523 25.6667 15.9987 25.6667C15.645 25.6667 15.3059 25.5437 15.0559 25.325C14.8058 25.1062 14.6653 24.8094 14.6653 24.5V23.0393C14.6655 22.7804 14.5672 22.5287 14.3859 22.3241C14.2046 22.1194 13.9506 21.9733 13.664 21.9088C12.0218 21.5363 10.5271 20.7783 9.34133 19.7167C9.13403 19.5318 8.86231 19.4125 8.569 19.3777C8.27569 19.3428 7.97747 19.3944 7.72133 19.5242L6.27599 20.2557C6.1243 20.3335 5.95651 20.3843 5.7823 20.4051C5.60808 20.426 5.43087 20.4164 5.26087 20.3771C5.09087 20.3378 4.93144 20.2694 4.79176 20.176C4.65207 20.0825 4.5349 19.9658 4.44698 19.8325C4.35906 19.6993 4.30212 19.5522 4.27946 19.3996C4.25679 19.247 4.26884 19.092 4.31492 18.9435C4.36099 18.795 4.44017 18.656 4.54791 18.5344C4.65564 18.4128 4.7898 18.311 4.94266 18.235L6.38799 17.5047C6.64393 17.3755 6.84356 17.1755 6.95554 16.9363C7.06752 16.697 7.0855 16.432 7.00666 16.1828C6.55514 14.7513 6.55514 13.2394 7.00666 11.8078C7.08408 11.5592 7.06524 11.2951 6.95308 11.0568C6.84092 10.8186 6.64175 10.6195 6.38666 10.4907L4.94133 9.76033C4.63492 9.60562 4.41129 9.35074 4.31965 9.05176C4.228 8.75278 4.27585 8.43419 4.45266 8.16608C4.62947 7.89797 4.92076 7.7023 5.26246 7.62211C5.60415 7.54192 5.96825 7.58379 6.27466 7.7385L7.72266 8.47117C7.9781 8.60126 8.2757 8.65341 8.5687 8.61941C8.86169 8.58541 9.13347 8.46719 9.34133 8.28333C10.5281 7.22323 12.0232 6.46686 13.6653 6.09583C13.9528 6.03116 14.2075 5.88438 14.3888 5.67875C14.5702 5.47312 14.668 5.22041 14.6667 4.96067V3.5C14.6667 3.19058 14.8071 2.89383 15.0572 2.67504C15.3072 2.45625 15.6464 2.33333 16 2.33333C16.3536 2.33333 16.6928 2.45625 16.9428 2.67504C17.1928 2.89383 17.3333 3.19058 17.3333 3.5V4.96067C17.3332 5.21962 17.4315 5.47125 17.6128 5.67593C17.7941 5.8806 18.048 6.02669 18.3347 6.09117C19.9773 6.46351 21.4725 7.22153 22.6587 8.28333C22.866 8.46821 23.1377 8.58747 23.431 8.62233C23.7243 8.65718 24.0225 8.60564 24.2787 8.47583L25.724 7.74433C25.8757 7.66652 26.0435 7.61573 26.2177 7.59488C26.3919 7.57404 26.5691 7.58356 26.7391 7.62288C26.9091 7.66221 27.0685 7.73057 27.2082 7.82403C27.3479 7.91749 27.4651 8.0342 27.553 8.16745C27.6409 8.3007 27.6979 8.44784 27.7205 8.60042C27.7432 8.753 27.7311 8.90799 27.6851 9.05647C27.639 9.20496 27.5598 9.344 27.4521 9.4656C27.3443 9.5872 27.2102 9.68895 27.0573 9.765L25.612 10.4953C25.3574 10.6245 25.1588 10.8237 25.0471 11.062C24.9354 11.3002 24.917 11.5641 24.9947 11.8125V11.8113Z" fill="white"/>
</g>
<defs>
<clipPath id="clip0_78_39">
<rect width="32" height="28" fill="white"/>
</clipPath>
</defs>
</svg>
