<svg width="29" height="28" viewBox="0 0 29 28" fill="none" xmlns="http://www.w3.org/2000/svg">
<g clip-path="url(#clip0_82_47)">
<path d="M14.5 14C15.9339 14 17.3356 13.5895 18.5279 12.8203C19.7201 12.0511 20.6494 10.9579 21.1981 9.67879C21.7469 8.3997 21.8904 6.99224 21.6107 5.63437C21.331 4.2765 20.6405 3.02922 19.6265 2.05026C18.6126 1.07129 17.3208 0.404603 15.9144 0.134506C14.508 -0.13559 13.0503 0.003033 11.7255 0.532846C10.4008 1.06266 9.26849 1.95987 8.47185 3.11101C7.67521 4.26215 7.25 5.61553 7.25 7C7.25192 8.85595 8.01637 10.6353 9.3756 11.9477C10.7348 13.2601 12.5778 13.9981 14.5 14ZM14.5 2.33334C15.4559 2.33334 16.3904 2.60703 17.1853 3.11981C17.9801 3.63259 18.5996 4.36143 18.9654 5.21415C19.3312 6.06687 19.427 7.00518 19.2405 7.91042C19.054 8.81567 18.5936 9.64719 17.9177 10.2998C17.2417 10.9525 16.3805 11.3969 15.4429 11.577C14.5054 11.7571 13.5335 11.6646 12.6504 11.3114C11.7672 10.9582 11.0123 10.3601 10.4812 9.59266C9.95014 8.82523 9.66667 7.92298 9.66667 7C9.66667 5.76233 10.1759 4.57534 11.0823 3.70017C11.9887 2.825 13.2181 2.33334 14.5 2.33334V2.33334Z" fill="white"/>
<path d="M14.5 16.3333C11.6168 16.3364 8.85251 17.4437 6.81375 19.4121C4.77498 21.3806 3.6282 24.0495 3.625 26.8333C3.625 27.1427 3.75231 27.4395 3.97891 27.6583C4.20552 27.8771 4.51286 28 4.83333 28C5.1538 28 5.46115 27.8771 5.68775 27.6583C5.91436 27.4395 6.04167 27.1427 6.04167 26.8333C6.04167 24.6674 6.93281 22.5902 8.51905 21.0586C10.1053 19.5271 12.2567 18.6667 14.5 18.6667C16.7433 18.6667 18.8947 19.5271 20.4809 21.0586C22.0672 22.5902 22.9583 24.6674 22.9583 26.8333C22.9583 27.1427 23.0856 27.4395 23.3122 27.6583C23.5388 27.8771 23.8462 28 24.1667 28C24.4871 28 24.7945 27.8771 25.0211 27.6583C25.2477 27.4395 25.375 27.1427 25.375 26.8333C25.3718 24.0495 24.225 21.3806 22.1862 19.4121C20.1475 17.4437 17.3832 16.3364 14.5 16.3333V16.3333Z" fill="white"/>
</g>
<defs>
<clipPath id="clip0_82_47">
<rect width="29" height="28" fill="white"/>
</clipPath>
</defs>
</svg>
